<svg width="15" height="15" viewBox="0 0 15 15" fill="none" xmlns="http://www.w3.org/2000/svg">
<path d="M13.7713 0.839844H5.21573C5.00077 0.839844 4.82683 1.01379 4.82683 1.22874C4.82683 1.4437 5.00077 1.61765 5.21573 1.61765H12.8325L0.274097 14.176C0.122176 14.3279 0.122176 14.574 0.274097 14.7259C0.35004 14.8018 0.449571 14.8398 0.549066 14.8398C0.648561 14.8398 0.748056 14.8018 0.824035 14.7259L13.3824 2.16754V9.78431C13.3824 9.99927 13.5563 10.1732 13.7713 10.1732C13.9863 10.1732 14.1602 9.99927 14.1602 9.78431V1.22874C14.1602 1.01379 13.9862 0.839844 13.7713 0.839844Z" fill="#050B20"/>
</svg>
