<svg width="15" height="15" viewBox="0 0 15 15" fill="none" xmlns="http://www.w3.org/2000/svg">
<path d="M14.1111 0.0700684H5.55557C5.34061 0.0700684 5.16667 0.244011 5.16667 0.458969C5.16667 0.673927 5.34061 0.84787 5.55557 0.84787H13.1723L0.613941 13.4063C0.46202 13.5582 0.46202 13.8043 0.613941 13.9562C0.689884 14.0321 0.789415 14.0701 0.88891 14.0701C0.988405 14.0701 1.0879 14.0321 1.16388 13.9562L13.7222 1.39777V9.01454C13.7222 9.2295 13.8961 9.40344 14.1111 9.40344C14.3261 9.40344 14.5 9.2295 14.5 9.01454V0.458969C14.5 0.244011 14.326 0.0700684 14.1111 0.0700684Z" fill="#405FF2"/>
</svg>
