<svg width="19" height="19" viewBox="0 0 19 19" fill="none" xmlns="http://www.w3.org/2000/svg">
<g clip-path="url(#clip0_5_3267)">
<path d="M10.8978 4.06996C10.8978 3.90996 10.8478 3.77996 10.7478 3.67996C10.6478 3.57996 10.5178 3.52996 10.3578 3.52996H4.71781C4.55781 3.52996 4.42781 3.57996 4.32781 3.67996C4.22781 3.77996 4.17781 3.90996 4.17781 4.06996V8.56996C4.17781 8.72996 4.22781 8.86996 4.32781 8.98996C4.42781 9.10996 4.55781 9.16996 4.71781 9.16996H10.3578C10.5178 9.16996 10.6478 9.10996 10.7478 8.98996C10.8478 8.86996 10.8978 8.72996 10.8978 8.56996V4.06996ZM9.75781 8.02996H5.25781V4.66996H9.75781V8.02996ZM17.3778 4.66996L15.0978 3.58996C14.9778 3.50996 14.8378 3.48996 14.6778 3.52996C14.5178 3.56996 14.4078 3.65996 14.3478 3.79996C14.2878 3.93996 14.2778 4.08996 14.3178 4.24996C14.3578 4.40996 14.4578 4.50996 14.6178 4.54996L15.4578 5.02996L15.3978 5.20996C15.3978 5.56996 15.5078 5.88996 15.7278 6.16996C15.9478 6.44996 16.2178 6.64996 16.5378 6.76996V13.61C16.5378 13.77 16.4778 13.91 16.3578 14.03C16.2378 14.15 16.1078 14.21 15.9678 14.21C15.8278 14.21 15.6978 14.15 15.5778 14.03C15.4578 13.91 15.3978 13.77 15.3978 13.61V9.10996C15.3978 8.46996 15.1678 7.88996 14.7078 7.36996C14.2478 6.84996 13.7378 6.52996 13.1778 6.40996V2.92996C13.1778 2.32996 12.9578 1.80996 12.5178 1.36996C12.0778 0.929962 11.5578 0.709961 10.9578 0.709961H4.17781C3.57781 0.709961 3.04781 0.929962 2.58781 1.36996C2.12781 1.80996 1.89781 2.32996 1.89781 2.92996V15.53L1.11781 15.95C0.877812 16.07 0.757812 16.23 0.757812 16.43V18.11C0.757812 18.27 0.817812 18.41 0.937812 18.53C1.05781 18.65 1.19781 18.71 1.35781 18.71H13.7178C13.8778 18.71 14.0078 18.65 14.1078 18.53C14.2078 18.41 14.2578 18.27 14.2578 18.11V16.43C14.2578 16.23 14.1578 16.07 13.9578 15.95L13.1778 15.53V7.54996C13.4578 7.66996 13.7078 7.87996 13.9278 8.17996C14.1478 8.47996 14.2578 8.78996 14.2578 9.10996V13.61C14.2578 14.09 14.4278 14.5 14.7678 14.84C15.1078 15.18 15.5078 15.35 15.9678 15.35C16.4278 15.35 16.8278 15.18 17.1678 14.84C17.5078 14.5 17.6778 14.09 17.6778 13.61V5.20996C17.6778 4.96996 17.5778 4.78996 17.3778 4.66996ZM13.1778 17.57H1.89781V16.79L2.73781 16.37C2.93781 16.29 3.03781 16.13 3.03781 15.89V2.92996C3.03781 2.64996 3.14781 2.39996 3.36781 2.17996C3.58781 1.95996 3.85781 1.84996 4.17781 1.84996H10.9578C11.2378 1.84996 11.4878 1.95996 11.7078 2.17996C11.9278 2.39996 12.0378 2.64996 12.0378 2.92996V15.89C12.0378 16.13 12.1378 16.29 12.3378 16.37L13.1778 16.79V17.57Z" fill="#050B20"/>
</g>
<defs>
<clipPath id="clip0_5_3267">
<rect width="18" height="18" fill="white" transform="matrix(1 0 0 -1 0.21875 18.71)"/>
</clipPath>
</defs>
</svg>
