<svg width="22" height="23" viewBox="0 0 22 23" fill="none" xmlns="http://www.w3.org/2000/svg">
<g clip-path="url(#clip0_5_3147)">
<path d="M13.0535 4.73655C13.0535 4.54099 12.9924 4.3821 12.8702 4.25988C12.7479 4.13766 12.589 4.07655 12.3935 4.07655H5.50016C5.3046 4.07655 5.14571 4.13766 5.02349 4.25988C4.90127 4.3821 4.84016 4.54099 4.84016 4.73655V10.2366C4.84016 10.4321 4.90127 10.6032 5.02349 10.7499C5.14571 10.8966 5.3046 10.9699 5.50016 10.9699H12.3935C12.589 10.9699 12.7479 10.8966 12.8702 10.7499C12.9924 10.6032 13.0535 10.4321 13.0535 10.2366V4.73655ZM11.6602 9.57655H6.16016V5.46988H11.6602V9.57655ZM20.9735 5.46988L18.1868 4.14988C18.0402 4.0521 17.869 4.02766 17.6735 4.07655C17.4779 4.12544 17.3435 4.23544 17.2702 4.40655C17.1968 4.57766 17.1846 4.76099 17.2335 4.95655C17.2824 5.15211 17.4046 5.27433 17.6002 5.32322L18.6268 5.90988L18.5535 6.12988C18.5535 6.56988 18.6879 6.96099 18.9568 7.30322C19.2257 7.64544 19.5557 7.88988 19.9468 8.03655V16.3965C19.9468 16.5921 19.8735 16.7632 19.7268 16.9099C19.5802 17.0565 19.4213 17.1299 19.2502 17.1299C19.079 17.1299 18.9202 17.0565 18.7735 16.9099C18.6268 16.7632 18.5535 16.5921 18.5535 16.3965V10.8966C18.5535 10.1143 18.2724 9.40544 17.7102 8.76988C17.1479 8.13433 16.5246 7.74322 15.8402 7.59655V3.34322C15.8402 2.60988 15.5713 1.97433 15.0335 1.43655C14.4957 0.898773 13.8602 0.629883 13.1268 0.629883H4.84016C4.10682 0.629883 3.45904 0.898773 2.89682 1.43655C2.3346 1.97433 2.05349 2.60988 2.05349 3.34322V18.7432L1.10016 19.2565C0.806823 19.4032 0.660156 19.5988 0.660156 19.8432V21.8965C0.660156 22.0921 0.73349 22.2632 0.880156 22.4099C1.02682 22.5565 1.19793 22.6299 1.39349 22.6299H16.5002C16.6957 22.6299 16.8546 22.5565 16.9768 22.4099C17.099 22.2632 17.1602 22.0921 17.1602 21.8965V19.8432C17.1602 19.5988 17.0379 19.4032 16.7935 19.2565L15.8402 18.7432V8.98988C16.1824 9.13655 16.4879 9.39322 16.7568 9.75988C17.0257 10.1265 17.1602 10.5054 17.1602 10.8966V16.3965C17.1602 16.9832 17.3679 17.4843 17.7835 17.8999C18.199 18.3154 18.6879 18.5232 19.2502 18.5232C19.8124 18.5232 20.3013 18.3154 20.7168 17.8999C21.1324 17.4843 21.3402 16.9832 21.3402 16.3965V6.12988C21.3402 5.83655 21.2179 5.61655 20.9735 5.46988ZM15.8402 21.2365H2.05349V20.2832L3.08016 19.7699C3.3246 19.6721 3.44682 19.4765 3.44682 19.1832V3.34322C3.44682 3.001 3.58127 2.69544 3.85016 2.42655C4.11905 2.15766 4.44904 2.02322 4.84016 2.02322H13.1268C13.469 2.02322 13.7746 2.15766 14.0435 2.42655C14.3124 2.69544 14.4468 3.001 14.4468 3.34322V19.1832C14.4468 19.4765 14.569 19.6721 14.8135 19.7699L15.8402 20.2832V21.2365Z" fill="white"/>
</g>
<defs>
<clipPath id="clip0_5_3147">
<rect width="22" height="22" fill="white" transform="matrix(1 0 0 -1 0 22.6299)"/>
</clipPath>
</defs>
</svg>
