<svg width="23" height="23" viewBox="0 0 23 23" fill="none" xmlns="http://www.w3.org/2000/svg">
<g clip-path="url(#clip0_5_3150)">
<path d="M22.7695 13.6098C22.7695 16.1032 22.0362 18.3276 20.5695 20.2832C20.4229 20.4787 20.2273 20.5887 19.9829 20.6132C19.7384 20.6376 19.5184 20.5765 19.3229 20.4298C19.1273 20.2832 19.0173 20.0998 18.9929 19.8798C18.9684 19.6598 19.0295 19.4521 19.1762 19.2565C20.4473 17.5943 21.0829 15.7121 21.0829 13.6098C21.0829 11.9476 20.6673 10.4076 19.8362 8.98984C19.0051 7.57206 17.8684 6.44762 16.4262 5.6165C14.984 4.78539 13.4318 4.36984 11.7695 4.36984C10.1073 4.36984 8.55509 4.78539 7.11286 5.6165C5.67064 6.44762 4.53398 7.57206 3.70286 8.98984C2.87175 10.4076 2.4562 11.9476 2.4562 13.6098C2.4562 15.7121 3.09175 17.5943 4.36286 19.2565C4.50953 19.4521 4.57064 19.6598 4.5462 19.8798C4.52175 20.0998 4.41175 20.2832 4.2162 20.4298C4.02064 20.5765 3.80064 20.6376 3.5562 20.6132C3.31175 20.5887 3.1162 20.4787 2.96953 20.2832C1.50286 18.3276 0.769531 16.1032 0.769531 13.6098C0.769531 11.6543 1.25842 9.83317 2.2362 8.1465C3.21398 6.45984 4.5462 5.12761 6.23286 4.14984C7.91953 3.17206 9.76509 2.68317 11.7695 2.68317C13.774 2.68317 15.6195 3.17206 17.3062 4.14984C18.9929 5.12761 20.3251 6.45984 21.3029 8.1465C22.2806 9.83317 22.7695 11.6543 22.7695 13.6098ZM17.1962 8.4765C17.3918 8.62317 17.4895 8.81873 17.4895 9.06317C17.4895 9.30762 17.3918 9.50317 17.1962 9.64984L14.4095 12.5098C14.654 12.9498 14.7762 13.4143 14.7762 13.9032C14.7762 14.7343 14.4829 15.4432 13.8962 16.0298C13.3095 16.6165 12.6006 16.9098 11.7695 16.9098C10.9384 16.9098 10.2295 16.6165 9.64286 16.0298C9.0562 15.4432 8.76286 14.7343 8.76286 13.9032C8.76286 13.0721 9.0562 12.3632 9.64286 11.7765C10.2295 11.1898 10.9384 10.8965 11.7695 10.8965C12.2584 10.8965 12.7229 11.0187 13.1629 11.2632L16.0229 8.4765C16.1695 8.28095 16.3651 8.18317 16.6095 8.18317C16.854 8.18317 17.0495 8.28095 17.1962 8.4765ZM13.0895 13.9032C13.0895 13.5609 12.9551 13.2676 12.6862 13.0232C12.4173 12.7787 12.1118 12.6565 11.7695 12.6565C11.4273 12.6565 11.1218 12.7787 10.8529 13.0232C10.584 13.2676 10.4495 13.5609 10.4495 13.9032C10.4495 14.2454 10.584 14.5509 10.8529 14.8198C11.1218 15.0887 11.4273 15.2232 11.7695 15.2232C12.1118 15.2232 12.4173 15.0887 12.6862 14.8198C12.9551 14.5509 13.0895 14.2454 13.0895 13.9032Z" fill="white"/>
</g>
<defs>
<clipPath id="clip0_5_3150">
<rect width="22" height="22" fill="white" transform="matrix(1 0 0 -1 0.769531 22.6299)"/>
</clipPath>
</defs>
</svg>
