<svg width="19" height="19" viewBox="0 0 19 19" fill="none" xmlns="http://www.w3.org/2000/svg">
<g clip-path="url(#clip0_5_3264)">
<path d="M18.2305 11.3299C18.2305 13.3699 17.6305 15.1899 16.4305 16.7899C16.3105 16.9499 16.1505 17.0399 15.9505 17.0599C15.7505 17.0799 15.5705 17.0299 15.4105 16.9099C15.2505 16.7899 15.1605 16.6399 15.1405 16.4599C15.1205 16.2799 15.1705 16.1099 15.2905 15.9499C16.3305 14.5899 16.8505 13.0499 16.8505 11.3299C16.8505 9.96992 16.5105 8.70992 15.8305 7.54992C15.1505 6.38992 14.2205 5.46992 13.0405 4.78992C11.8605 4.10992 10.5905 3.76992 9.23047 3.76992C7.87047 3.76992 6.60047 4.10992 5.42047 4.78992C4.24047 5.46992 3.31047 6.38992 2.63047 7.54992C1.95047 8.70992 1.61047 9.96992 1.61047 11.3299C1.61047 13.0499 2.13047 14.5899 3.17047 15.9499C3.29047 16.1099 3.34047 16.2799 3.32047 16.4599C3.30047 16.6399 3.21047 16.7899 3.05047 16.9099C2.89047 17.0299 2.71047 17.0799 2.51047 17.0599C2.31047 17.0399 2.15047 16.9499 2.03047 16.7899C0.830469 15.1899 0.230469 13.3699 0.230469 11.3299C0.230469 9.72992 0.630469 8.23992 1.43047 6.85992C2.23047 5.47992 3.32047 4.38992 4.70047 3.58992C6.08047 2.78992 7.59047 2.38992 9.23047 2.38992C10.8705 2.38992 12.3805 2.78992 13.7605 3.58992C15.1405 4.38992 16.2305 5.47992 17.0305 6.85992C17.8305 8.23992 18.2305 9.72992 18.2305 11.3299ZM13.6705 7.12992C13.8305 7.24992 13.9105 7.40992 13.9105 7.60992C13.9105 7.80992 13.8305 7.96992 13.6705 8.08992L11.3905 10.4299C11.5905 10.7899 11.6905 11.1699 11.6905 11.5699C11.6905 12.2499 11.4505 12.8299 10.9705 13.3099C10.4905 13.7899 9.91047 14.0299 9.23047 14.0299C8.55047 14.0299 7.97047 13.7899 7.49047 13.3099C7.01047 12.8299 6.77047 12.2499 6.77047 11.5699C6.77047 10.8899 7.01047 10.3099 7.49047 9.82992C7.97047 9.34992 8.55047 9.10992 9.23047 9.10992C9.63047 9.10992 10.0105 9.20992 10.3705 9.40992L12.7105 7.12992C12.8305 6.96992 12.9905 6.88992 13.1905 6.88992C13.3905 6.88992 13.5505 6.96992 13.6705 7.12992ZM10.3105 11.5699C10.3105 11.2899 10.2005 11.0499 9.98047 10.8499C9.76047 10.6499 9.51047 10.5499 9.23047 10.5499C8.95047 10.5499 8.70047 10.6499 8.48047 10.8499C8.26047 11.0499 8.15047 11.2899 8.15047 11.5699C8.15047 11.8499 8.26047 12.0999 8.48047 12.3199C8.70047 12.5399 8.95047 12.6499 9.23047 12.6499C9.51047 12.6499 9.76047 12.5399 9.98047 12.3199C10.2005 12.0999 10.3105 11.8499 10.3105 11.5699Z" fill="#050B20"/>
</g>
<defs>
<clipPath id="clip0_5_3264">
<rect width="18" height="18" fill="white" transform="matrix(1 0 0 -1 0.230469 18.71)"/>
</clipPath>
</defs>
</svg>
