<svg width="19" height="19" viewBox="0 0 19 19" fill="none" xmlns="http://www.w3.org/2000/svg">
<path d="M3.71969 2.39003C3.15969 2.39003 2.67969 2.59003 2.27969 2.99003C1.87969 3.39003 1.67969 3.88003 1.67969 4.46003C1.67969 5.04003 1.87969 5.53003 2.27969 5.93003C2.67969 6.33003 3.15969 6.53003 3.71969 6.53003C4.27969 6.53003 4.75969 6.33003 5.15969 5.93003C5.55969 5.53003 5.75969 5.04003 5.75969 4.46003C5.75969 3.88003 5.55969 3.39003 5.15969 2.99003C4.75969 2.59003 4.27969 2.39003 3.71969 2.39003ZM3.71969 3.53003C3.95969 3.53003 4.17969 3.62003 4.37969 3.80003C4.57969 3.98003 4.67969 4.20003 4.67969 4.46003C4.67969 4.72003 4.57969 4.94003 4.37969 5.12003C4.17969 5.30003 3.95969 5.39003 3.71969 5.39003C3.47969 5.39003 3.25969 5.30003 3.05969 5.12003C2.85969 4.94003 2.75969 4.72003 2.75969 4.46003C2.75969 4.20003 2.85969 3.98003 3.05969 3.80003C3.25969 3.62003 3.47969 3.53003 3.71969 3.53003ZM3.71969 12.89C3.15969 12.89 2.67969 13.09 2.27969 13.49C1.87969 13.89 1.67969 14.38 1.67969 14.96C1.67969 15.54 1.87969 16.03 2.27969 16.43C2.67969 16.83 3.15969 17.03 3.71969 17.03C4.27969 17.03 4.75969 16.83 5.15969 16.43C5.55969 16.03 5.75969 15.54 5.75969 14.96C5.75969 14.38 5.55969 13.89 5.15969 13.49C4.75969 13.09 4.27969 12.89 3.71969 12.89ZM3.71969 14.03C3.95969 14.03 4.17969 14.12 4.37969 14.3C4.57969 14.48 4.67969 14.7 4.67969 14.96C4.67969 15.22 4.57969 15.44 4.37969 15.62C4.17969 15.8 3.95969 15.89 3.71969 15.89C3.47969 15.89 3.25969 15.8 3.05969 15.62C2.85969 15.44 2.75969 15.22 2.75969 14.96C2.75969 14.7 2.85969 14.48 3.05969 14.3C3.25969 14.12 3.47969 14.03 3.71969 14.03ZM9.71969 2.39003C9.15969 2.39003 8.67969 2.59003 8.27969 2.99003C7.87969 3.39003 7.67969 3.88003 7.67969 4.46003C7.67969 5.04003 7.87969 5.53003 8.27969 5.93003C8.67969 6.33003 9.15969 6.53003 9.71969 6.53003C10.2797 6.53003 10.7597 6.33003 11.1597 5.93003C11.5597 5.53003 11.7597 5.04003 11.7597 4.46003C11.7597 3.88003 11.5597 3.39003 11.1597 2.99003C10.7597 2.59003 10.2797 2.39003 9.71969 2.39003ZM9.71969 3.53003C9.95969 3.53003 10.1797 3.62003 10.3797 3.80003C10.5797 3.98003 10.6797 4.20003 10.6797 4.46003C10.6797 4.72003 10.5797 4.94003 10.3797 5.12003C10.1797 5.30003 9.95969 5.39003 9.71969 5.39003C9.47969 5.39003 9.25969 5.30003 9.05969 5.12003C8.85969 4.94003 8.75969 4.72003 8.75969 4.46003C8.75969 4.20003 8.85969 3.98003 9.05969 3.80003C9.25969 3.62003 9.47969 3.53003 9.71969 3.53003ZM9.71969 12.89C9.15969 12.89 8.67969 13.09 8.27969 13.49C7.87969 13.89 7.67969 14.38 7.67969 14.96C7.67969 15.54 7.87969 16.03 8.27969 16.43C8.67969 16.83 9.15969 17.03 9.71969 17.03C10.2797 17.03 10.7597 16.83 11.1597 16.43C11.5597 16.03 11.7597 15.54 11.7597 14.96C11.7597 14.38 11.5597 13.89 11.1597 13.49C10.7597 13.09 10.2797 12.89 9.71969 12.89ZM9.71969 14.03C9.95969 14.03 10.1797 14.12 10.3797 14.3C10.5797 14.48 10.6797 14.7 10.6797 14.96C10.6797 15.22 10.5797 15.44 10.3797 15.62C10.1797 15.8 9.95969 15.89 9.71969 15.89C9.47969 15.89 9.25969 15.8 9.05969 15.62C8.85969 15.44 8.75969 15.22 8.75969 14.96C8.75969 14.7 8.85969 14.48 9.05969 14.3C9.25969 14.12 9.47969 14.03 9.71969 14.03ZM15.7197 2.39003C15.1597 2.39003 14.6797 2.59003 14.2797 2.99003C13.8797 3.39003 13.6797 3.88003 13.6797 4.46003C13.6797 5.04003 13.8797 5.53003 14.2797 5.93003C14.6797 6.33003 15.1597 6.53003 15.7197 6.53003C16.2797 6.53003 16.7597 6.33003 17.1597 5.93003C17.5597 5.53003 17.7597 5.04003 17.7597 4.46003C17.7597 3.88003 17.5597 3.39003 17.1597 2.99003C16.7597 2.59003 16.2797 2.39003 15.7197 2.39003ZM15.7197 3.53003C15.9597 3.53003 16.1797 3.62003 16.3797 3.80003C16.5797 3.98003 16.6797 4.20003 16.6797 4.46003C16.6797 4.72003 16.5797 4.94003 16.3797 5.12003C16.1797 5.30003 15.9597 5.39003 15.7197 5.39003C15.4797 5.39003 15.2597 5.30003 15.0597 5.12003C14.8597 4.94003 14.7597 4.72003 14.7597 4.46003C14.7597 4.20003 14.8597 3.98003 15.0597 3.80003C15.2597 3.62003 15.4797 3.53003 15.7197 3.53003ZM15.7197 12.89C15.1597 12.89 14.6797 13.09 14.2797 13.49C13.8797 13.89 13.6797 14.38 13.6797 14.96C13.6797 15.54 13.8797 16.03 14.2797 16.43C14.6797 16.83 15.1597 17.03 15.7197 17.03C16.2797 17.03 16.7597 16.83 17.1597 16.43C17.5597 16.03 17.7597 15.54 17.7597 14.96C17.7597 14.38 17.5597 13.89 17.1597 13.49C16.7597 13.09 16.2797 12.89 15.7197 12.89ZM15.7197 14.03C15.9597 14.03 16.1797 14.12 16.3797 14.3C16.5797 14.48 16.6797 14.7 16.6797 14.96C16.6797 15.22 16.5797 15.44 16.3797 15.62C16.1797 15.8 15.9597 15.89 15.7197 15.89C15.4797 15.89 15.2597 15.8 15.0597 15.62C14.8597 15.44 14.7597 15.22 14.7597 14.96C14.7597 14.7 14.8597 14.48 15.0597 14.3C15.2597 14.12 15.4797 14.03 15.7197 14.03ZM3.17969 5.93003V13.43C3.17969 13.59 3.22969 13.73 3.32969 13.85C3.42969 13.97 3.55969 14.03 3.71969 14.03C3.87969 14.03 4.00969 13.97 4.10969 13.85C4.20969 13.73 4.25969 13.61 4.25969 13.49V5.93003C4.25969 5.81003 4.20969 5.69003 4.10969 5.57003C4.00969 5.45003 3.87969 5.39003 3.71969 5.39003C3.55969 5.39003 3.42969 5.45003 3.32969 5.57003C3.22969 5.69003 3.17969 5.81003 3.17969 5.93003ZM9.17969 5.93003V13.43C9.17969 13.59 9.22969 13.73 9.32969 13.85C9.42969 13.97 9.55969 14.03 9.71969 14.03C9.87969 14.03 10.0097 13.97 10.1097 13.85C10.2097 13.73 10.2597 13.61 10.2597 13.49V5.93003C10.2597 5.81003 10.2097 5.69003 10.1097 5.57003C10.0097 5.45003 9.87969 5.39003 9.71969 5.39003C9.55969 5.39003 9.42969 5.45003 9.32969 5.57003C9.22969 5.69003 9.17969 5.81003 9.17969 5.93003ZM15.1797 5.93003V8.93003C15.1797 9.01003 15.1597 9.07003 15.1197 9.11003C15.0797 9.15003 15.0397 9.17003 14.9997 9.17003H3.71969C3.55969 9.17003 3.42969 9.22003 3.32969 9.32003C3.22969 9.42003 3.17969 9.55003 3.17969 9.71003C3.17969 9.87003 3.22969 10 3.32969 10.1C3.42969 10.2 3.55969 10.25 3.71969 10.25H14.9997C15.3597 10.25 15.6597 10.13 15.8997 9.89003C16.1397 9.65003 16.2597 9.33003 16.2597 8.93003V5.99003C16.2597 5.83003 16.2097 5.69003 16.1097 5.57003C16.0097 5.45003 15.8797 5.39003 15.7197 5.39003C15.5597 5.39003 15.4297 5.45003 15.3297 5.57003C15.2297 5.69003 15.1797 5.81003 15.1797 5.93003Z" fill="#050B20"/>
</svg>
