<svg width="23" height="23" viewBox="0 0 23 23" fill="none" xmlns="http://www.w3.org/2000/svg">
<path d="M3.80583 2.68333C3.12139 2.68333 2.53472 2.92777 2.04583 3.41666C1.55694 3.90555 1.3125 4.50444 1.3125 5.21333C1.3125 5.92222 1.55694 6.5211 2.04583 7.00999C2.53472 7.49888 3.12139 7.74333 3.80583 7.74333C4.49028 7.74333 5.07694 7.49888 5.56583 7.00999C6.05472 6.5211 6.29917 5.92222 6.29917 5.21333C6.29917 4.50444 6.05472 3.90555 5.56583 3.41666C5.07694 2.92777 4.49028 2.68333 3.80583 2.68333ZM3.80583 4.07666C4.09917 4.07666 4.36806 4.18666 4.6125 4.40666C4.85694 4.62666 4.97917 4.89555 4.97917 5.21333C4.97917 5.53111 4.85694 5.79999 4.6125 6.01999C4.36806 6.23999 4.09917 6.34999 3.80583 6.34999C3.5125 6.34999 3.24361 6.23999 2.99917 6.01999C2.75472 5.79999 2.6325 5.53111 2.6325 5.21333C2.6325 4.89555 2.75472 4.62666 2.99917 4.40666C3.24361 4.18666 3.5125 4.07666 3.80583 4.07666ZM3.80583 15.5167C3.12139 15.5167 2.53472 15.7611 2.04583 16.25C1.55694 16.7389 1.3125 17.3378 1.3125 18.0467C1.3125 18.7555 1.55694 19.3544 2.04583 19.8433C2.53472 20.3322 3.12139 20.5767 3.80583 20.5767C4.49028 20.5767 5.07694 20.3322 5.56583 19.8433C6.05472 19.3544 6.29917 18.7555 6.29917 18.0467C6.29917 17.3378 6.05472 16.7389 5.56583 16.25C5.07694 15.7611 4.49028 15.5167 3.80583 15.5167ZM3.80583 16.91C4.09917 16.91 4.36806 17.02 4.6125 17.24C4.85694 17.46 4.97917 17.7289 4.97917 18.0467C4.97917 18.3644 4.85694 18.6333 4.6125 18.8533C4.36806 19.0733 4.09917 19.1833 3.80583 19.1833C3.5125 19.1833 3.24361 19.0733 2.99917 18.8533C2.75472 18.6333 2.6325 18.3644 2.6325 18.0467C2.6325 17.7289 2.75472 17.46 2.99917 17.24C3.24361 17.02 3.5125 16.91 3.80583 16.91ZM11.1392 2.68333C10.4547 2.68333 9.86806 2.92777 9.37917 3.41666C8.89028 3.90555 8.64583 4.50444 8.64583 5.21333C8.64583 5.92222 8.89028 6.5211 9.37917 7.00999C9.86806 7.49888 10.4547 7.74333 11.1392 7.74333C11.8236 7.74333 12.4103 7.49888 12.8992 7.00999C13.3881 6.5211 13.6325 5.92222 13.6325 5.21333C13.6325 4.50444 13.3881 3.90555 12.8992 3.41666C12.4103 2.92777 11.8236 2.68333 11.1392 2.68333ZM11.1392 4.07666C11.4325 4.07666 11.7014 4.18666 11.9458 4.40666C12.1903 4.62666 12.3125 4.89555 12.3125 5.21333C12.3125 5.53111 12.1903 5.79999 11.9458 6.01999C11.7014 6.23999 11.4325 6.34999 11.1392 6.34999C10.8458 6.34999 10.5769 6.23999 10.3325 6.01999C10.0881 5.79999 9.96583 5.53111 9.96583 5.21333C9.96583 4.89555 10.0881 4.62666 10.3325 4.40666C10.5769 4.18666 10.8458 4.07666 11.1392 4.07666ZM11.1392 15.5167C10.4547 15.5167 9.86806 15.7611 9.37917 16.25C8.89028 16.7389 8.64583 17.3378 8.64583 18.0467C8.64583 18.7555 8.89028 19.3544 9.37917 19.8433C9.86806 20.3322 10.4547 20.5767 11.1392 20.5767C11.8236 20.5767 12.4103 20.3322 12.8992 19.8433C13.3881 19.3544 13.6325 18.7555 13.6325 18.0467C13.6325 17.3378 13.3881 16.7389 12.8992 16.25C12.4103 15.7611 11.8236 15.5167 11.1392 15.5167ZM11.1392 16.91C11.4325 16.91 11.7014 17.02 11.9458 17.24C12.1903 17.46 12.3125 17.7289 12.3125 18.0467C12.3125 18.3644 12.1903 18.6333 11.9458 18.8533C11.7014 19.0733 11.4325 19.1833 11.1392 19.1833C10.8458 19.1833 10.5769 19.0733 10.3325 18.8533C10.0881 18.6333 9.96583 18.3644 9.96583 18.0467C9.96583 17.7289 10.0881 17.46 10.3325 17.24C10.5769 17.02 10.8458 16.91 11.1392 16.91ZM18.4725 2.68333C17.7881 2.68333 17.2014 2.92777 16.7125 3.41666C16.2236 3.90555 15.9792 4.50444 15.9792 5.21333C15.9792 5.92222 16.2236 6.5211 16.7125 7.00999C17.2014 7.49888 17.7881 7.74333 18.4725 7.74333C19.1569 7.74333 19.7436 7.49888 20.2325 7.00999C20.7214 6.5211 20.9658 5.92222 20.9658 5.21333C20.9658 4.50444 20.7214 3.90555 20.2325 3.41666C19.7436 2.92777 19.1569 2.68333 18.4725 2.68333ZM18.4725 4.07666C18.7658 4.07666 19.0347 4.18666 19.2792 4.40666C19.5236 4.62666 19.6458 4.89555 19.6458 5.21333C19.6458 5.53111 19.5236 5.79999 19.2792 6.01999C19.0347 6.23999 18.7658 6.34999 18.4725 6.34999C18.1792 6.34999 17.9103 6.23999 17.6658 6.01999C17.4214 5.79999 17.2992 5.53111 17.2992 5.21333C17.2992 4.89555 17.4214 4.62666 17.6658 4.40666C17.9103 4.18666 18.1792 4.07666 18.4725 4.07666ZM18.4725 15.5167C17.7881 15.5167 17.2014 15.7611 16.7125 16.25C16.2236 16.7389 15.9792 17.3378 15.9792 18.0467C15.9792 18.7555 16.2236 19.3544 16.7125 19.8433C17.2014 20.3322 17.7881 20.5767 18.4725 20.5767C19.1569 20.5767 19.7436 20.3322 20.2325 19.8433C20.7214 19.3544 20.9658 18.7555 20.9658 18.0467C20.9658 17.3378 20.7214 16.7389 20.2325 16.25C19.7436 15.7611 19.1569 15.5167 18.4725 15.5167ZM18.4725 16.91C18.7658 16.91 19.0347 17.02 19.2792 17.24C19.5236 17.46 19.6458 17.7289 19.6458 18.0467C19.6458 18.3644 19.5236 18.6333 19.2792 18.8533C19.0347 19.0733 18.7658 19.1833 18.4725 19.1833C18.1792 19.1833 17.9103 19.0733 17.6658 18.8533C17.4214 18.6333 17.2992 18.3644 17.2992 18.0467C17.2992 17.7289 17.4214 17.46 17.6658 17.24C17.9103 17.02 18.1792 16.91 18.4725 16.91ZM3.14583 7.00999V16.1767C3.14583 16.3722 3.20694 16.5433 3.32917 16.69C3.45139 16.8367 3.61028 16.91 3.80583 16.91C4.00139 16.91 4.16028 16.8367 4.2825 16.69C4.40472 16.5433 4.46583 16.3967 4.46583 16.25V7.00999C4.46583 6.86333 4.40472 6.71666 4.2825 6.56999C4.16028 6.42333 4.00139 6.34999 3.80583 6.34999C3.61028 6.34999 3.45139 6.42333 3.32917 6.56999C3.20694 6.71666 3.14583 6.86333 3.14583 7.00999ZM10.4792 7.00999V16.1767C10.4792 16.3722 10.5403 16.5433 10.6625 16.69C10.7847 16.8367 10.9436 16.91 11.1392 16.91C11.3347 16.91 11.4936 16.8367 11.6158 16.69C11.7381 16.5433 11.7992 16.3967 11.7992 16.25V7.00999C11.7992 6.86333 11.7381 6.71666 11.6158 6.56999C11.4936 6.42333 11.3347 6.34999 11.1392 6.34999C10.9436 6.34999 10.7847 6.42333 10.6625 6.56999C10.5403 6.71666 10.4792 6.86333 10.4792 7.00999ZM17.8125 7.00999V10.6767C17.8125 10.7744 17.7881 10.8478 17.7392 10.8967C17.6903 10.9455 17.6414 10.97 17.5925 10.97H3.80583C3.61028 10.97 3.45139 11.0311 3.32917 11.1533C3.20694 11.2755 3.14583 11.4344 3.14583 11.63C3.14583 11.8255 3.20694 11.9844 3.32917 12.1067C3.45139 12.2289 3.61028 12.29 3.80583 12.29H17.5925C18.0325 12.29 18.3992 12.1433 18.6925 11.85C18.9858 11.5567 19.1325 11.1655 19.1325 10.6767V7.08333C19.1325 6.88777 19.0714 6.71666 18.9492 6.56999C18.8269 6.42333 18.6681 6.34999 18.4725 6.34999C18.2769 6.34999 18.1181 6.42333 17.9958 6.56999C17.8736 6.71666 17.8125 6.86333 17.8125 7.00999Z" fill="white"/>
</svg>
