<svg width="108" height="27" viewBox="0 0 108 27" fill="none" xmlns="http://www.w3.org/2000/svg">
<g clip-path="url(#clip0_5_1459)">
<g clip-path="url(#clip1_5_1459)">
<g clip-path="url(#clip2_5_1459)">
<path d="M7.20844 0.720428C11.1984 0.720428 12.9134 2.57543 12.9134 6.35543V7.23043C12.9134 9.75043 12.1434 11.3604 10.4284 12.1654C12.4934 12.9704 13.2984 14.8254 13.2984 17.4154V19.4104C13.2984 23.1904 11.3034 25.2204 7.45344 25.2204H1.39844V0.720428H7.20844ZM6.96344 14.1954H5.24844V21.7204H7.45344C8.74844 21.7204 9.44844 21.1254 9.44844 19.3054V17.1704C9.44844 14.8954 8.71344 14.1954 6.96344 14.1954ZM7.10344 4.22043H5.24844V10.6954H6.75344C8.18844 10.6954 9.06344 10.0654 9.06344 8.10543V6.74043C9.06344 4.99043 8.46844 4.22043 7.10344 4.22043ZM20.9022 6.35543V19.5854C20.9022 21.3354 21.6722 22.0004 22.8972 22.0004C24.1222 22.0004 24.8922 21.3354 24.8922 19.5854V6.35543C24.8922 4.60543 24.1222 3.94043 22.8972 3.94043C21.6722 3.94043 20.9022 4.60543 20.9022 6.35543ZM17.0522 19.3404V6.60043C17.0522 2.68043 19.1172 0.44043 22.8972 0.44043C26.6772 0.44043 28.7422 2.68043 28.7422 6.60043V19.3404C28.7422 23.2604 26.6772 25.5004 22.8972 25.5004C19.1172 25.5004 17.0522 23.2604 17.0522 19.3404ZM41.7564 0.720428H45.3264L41.3014 12.6204L45.6064 25.2204H41.5464L38.3964 15.5254L35.2114 25.2204H31.6064L35.9114 12.6204L31.8864 0.720428H35.8764L38.7814 9.75043L41.7564 0.720428ZM56.2828 16.0854H59.9228V19.3404C59.9228 23.2604 57.9628 25.5004 54.1828 25.5004C50.4028 25.5004 48.4428 23.2604 48.4428 19.3404V6.60043C48.4428 2.68043 50.4028 0.44043 54.1828 0.44043C57.9628 0.44043 59.9228 2.68043 59.9228 6.60043V8.98043H56.2828V6.35543C56.2828 4.60543 55.5128 3.94043 54.2878 3.94043C53.0628 3.94043 52.2928 4.60543 52.2928 6.35543V19.5854C52.2928 21.3354 53.0628 21.9654 54.2878 21.9654C55.5128 21.9654 56.2828 21.3354 56.2828 19.5854V16.0854ZM72.5488 0.720428L76.4688 25.2204H72.5838L71.9188 20.7754H67.1938L66.5288 25.2204H62.9938L66.9138 0.720428H72.5488ZM69.5388 5.06043L67.6838 17.4504H71.3938L69.5388 5.06043ZM91.9817 25.2204H88.0617C87.8517 24.5904 87.7117 24.2054 87.7117 22.2104V18.3604C87.7117 16.0854 86.9417 15.2454 85.1917 15.2454H83.8617V25.2204H80.0117V0.720428H85.8217C89.8117 0.720428 91.5267 2.57543 91.5267 6.35543V8.28043C91.5267 10.8004 90.7217 12.4454 89.0067 13.2504C90.9317 14.0554 91.5617 15.9104 91.5617 18.4654V22.2454C91.5617 23.4354 91.5967 24.3104 91.9817 25.2204ZM85.7167 4.22043H83.8617V11.7454H85.3667C86.8017 11.7454 87.6767 11.1154 87.6767 9.15543V6.74043C87.6767 4.99043 87.0817 4.22043 85.7167 4.22043ZM95.3537 6.60043C95.3537 2.68043 97.2787 0.44043 101.023 0.44043C104.768 0.44043 106.693 2.68043 106.693 6.60043V7.37043H103.053V6.35543C103.053 4.60543 102.353 3.94043 101.128 3.94043C99.9037 3.94043 99.2037 4.60543 99.2037 6.35543C99.2037 11.3954 106.728 12.3404 106.728 19.3404C106.728 23.2604 104.768 25.5004 100.988 25.5004C97.2087 25.5004 95.2487 23.2604 95.2487 19.3404V17.8354H98.8887V19.5854C98.8887 21.3354 99.6587 21.9654 100.883 21.9654C102.108 21.9654 102.878 21.3354 102.878 19.5854C102.878 14.5454 95.3537 13.6004 95.3537 6.60043Z" fill="#050B20"/>
</g>
</g>
</g>
<defs>
<clipPath id="clip0_5_1459">
<rect width="108" height="26" fill="white" transform="translate(0 0.220215)"/>
</clipPath>
<clipPath id="clip1_5_1459">
<rect width="108" height="26" fill="white" transform="translate(0 0.220215)"/>
</clipPath>
<clipPath id="clip2_5_1459">
<rect width="108" height="26" fill="white" transform="translate(0 0.220215)"/>
</clipPath>
</defs>
</svg>
